<svg xmlns="http://www.w3.org/2000/svg" width="32" height="32" viewBox="0 0 32 32">
  <defs>
    <style>
      .cls-1 {
        fill: #95e1d3;
        fill-rule: evenodd;
      }
    </style>
  </defs>
  <path id="BOOK_2.svg" class="cls-1" d="M432.064,1525.89l-14.47,5.99a1.53,1.53,0,0,1-1.188,0l-14.471-5.99a1.5,1.5,0,0,1-.935-1.39v-23a1.5,1.5,0,0,1,1.5-1.5,1.55,1.55,0,0,1,.573.11h0a0.012,0.012,0,0,0,.013.01L417,1505.88l13.911-5.76a0.013,0.013,0,0,0,.013-0.01h0a1.56,1.56,0,0,1,.574-0.11,1.5,1.5,0,0,1,1.5,1.5v23A1.5,1.5,0,0,1,432.064,1525.89ZM415.5,1508.5l-11.5-4.76v19.76l11.5,4.76V1508.5Zm14.5-4.76-11.5,4.76v19.76l11.5-4.76v-19.76Zm-9.121,6.89,5.5-2.5h0A1.593,1.593,0,0,1,427,1508a1.5,1.5,0,0,1,.621,2.87h0l-5.5,2.49h0a1.445,1.445,0,0,1-.621.14A1.5,1.5,0,0,1,420.879,1510.63Zm0,5.5h0l5.5-2.5h0a1.593,1.593,0,0,1,.621-0.13,1.5,1.5,0,0,1,1.5,1.5,1.483,1.483,0,0,1-.879,1.36l-5.5,2.51v-0.01a1.445,1.445,0,0,1-.621.14A1.5,1.5,0,0,1,420.879,1516.13Zm0,5.5h0l5.5-2.5h0A1.593,1.593,0,0,1,427,1519a1.5,1.5,0,0,1,1.5,1.5,1.483,1.483,0,0,1-.879,1.36h0l-5.5,2.5h0a1.445,1.445,0,0,1-.621.14A1.5,1.5,0,0,1,420.879,1521.63ZM407,1508a1.6,1.6,0,0,1,.621.13h0l5.5,2.5h0a1.5,1.5,0,0,1-.621,2.87,1.439,1.439,0,0,1-.621-0.14h0l-5.5-2.49h0A1.5,1.5,0,0,1,407,1508Zm0,5.5a1.6,1.6,0,0,1,.621.13h0l5.5,2.5h0a1.5,1.5,0,0,1-.621,2.87,1.439,1.439,0,0,1-.621-0.14v0.01l-5.5-2.51h0a1.483,1.483,0,0,1-.879-1.36A1.5,1.5,0,0,1,407,1513.5Zm0,5.5a1.6,1.6,0,0,1,.621.13h0l5.5,2.5h0a1.5,1.5,0,0,1-.621,2.87,1.439,1.439,0,0,1-.621-0.14h0l-5.5-2.5h0a1.483,1.483,0,0,1-.879-1.36A1.5,1.5,0,0,1,407,1519Z" transform="translate(-401 -1500)"/>
</svg>
