<svg xmlns="http://www.w3.org/2000/svg" width="32" height="32" viewBox="0 0 32 32">
  <defs>
    <style>
      .cls-1 {
        fill: #95e1d3;
        fill-rule: evenodd;
      }
    </style>
  </defs>
  <path id="IMAGE.svg" class="cls-1" d="M1230.5,1532h-29a1.5,1.5,0,0,1-1.5-1.5v-29a1.5,1.5,0,0,1,1.5-1.5h29a1.5,1.5,0,0,1,1.5,1.5v29A1.5,1.5,0,0,1,1230.5,1532Zm-1.5-29h-26v26h26v-26Zm-22.5,1.5h5.5a1.5,1.5,0,0,1,0,3h-4.5v4.5h0a1.5,1.5,0,0,1-3,0h0v-5.5h0v-2h2Zm-2,15.5h0a1.5,1.5,0,0,1,3,0h0v4.5h4.5a1.5,1.5,0,0,1,0,3h-7.5v-2h0V1520Zm15.5-15.5h7.5v2h0v5.5h0a1.5,1.5,0,0,1-3,0h0v-4.5H1220A1.5,1.5,0,0,1,1220,1504.5Zm0,20h4.5V1520h0a1.5,1.5,0,0,1,3,0h0v5.5h0v2H1220A1.5,1.5,0,0,1,1220,1524.5Z" transform="translate(-1200 -1500)"/>
</svg>
