<svg xmlns="http://www.w3.org/2000/svg" width="32" height="32" viewBox="0 0 32 32">
  <defs>
    <style>
      .cls-1 {
        fill: #95e1d3;
        fill-rule: evenodd;
      }
    </style>
  </defs>
  <path id="LINE_GRAPH.svg" class="cls-1" d="M831.5,1362h-29a1.5,1.5,0,0,1-1.5-1.5v-29a1.5,1.5,0,0,1,1.5-1.5h29a1.5,1.5,0,0,1,1.5,1.5v29A1.5,1.5,0,0,1,831.5,1362Zm-1.5-29H804v26h26v-26Zm-23.785,13.24h0l4-2.5h0a1.524,1.524,0,0,1,1.625.03h0.006l6.631,4.42,7.638-5.4a1.5,1.5,0,1,1,1.763,2.43h0l-8.5,6h0a1.48,1.48,0,0,1-.878.28,1.5,1.5,0,0,1-.861-0.27l-6.657-4.44-3.135,1.96a1.465,1.465,0,0,1-.847.27A1.5,1.5,0,0,1,806.215,1346.24Z" transform="translate(-801 -1330)"/>
</svg>
