<svg xmlns="http://www.w3.org/2000/svg" width="16.031" height="14.25" viewBox="0 0 16.031 14.25">
  <defs>
    <style>
      .cls-1 {
        fill: #95e1d3;
        fill-rule: evenodd;
      }
    </style>
  </defs>
  <path id="SPEECH_BUBBLE_2.svg" class="cls-1" d="M437.416,6439.36a11.451,11.451,0,0,1-1.676-.25,6.352,6.352,0,0,1-5.647,2.23c2.441-1.16,2.391-3.07,1.957-3.32a5.618,5.618,0,0,1-3.068-4.77c0-3.39,3.727-6.13,8.434-6.13s7.577,2.74,7.577,6.13S442.124,6439.36,437.416,6439.36Zm-4.174-7.49a1.5,1.5,0,1,0,1.5,1.5A1.506,1.506,0,0,0,433.242,6431.87Zm3.75,0a1.5,1.5,0,1,0,1.5,1.5A1.506,1.506,0,0,0,436.992,6431.87Zm3.75,0a1.5,1.5,0,1,0,1.5,1.5A1.506,1.506,0,0,0,440.742,6431.87Z" transform="translate(-428.969 -6427.13)"/>
</svg>
