<svg xmlns="http://www.w3.org/2000/svg" width="19.438" height="11.25" viewBox="0 0 19.438 11.25">
  <defs>
    <style>
      .cls-1 {
        fill: #95e1d3;
        fill-rule: evenodd;
      }
    </style>
  </defs>
  <path id="VIEW.svg" class="cls-1" d="M379.71,6433.78a0.117,0.117,0,0,0,0,.02v0.01c0,0.01,0,.01,0,0.02s0,0.01,0,.02h0a0.734,0.734,0,0,1-.2.41c-0.2.25-.427,0.48-0.651,0.71a16.685,16.685,0,0,1-4.123,3.12,11.065,11.065,0,0,1-3.09,1.12,9.22,9.22,0,0,1-3.55-.05,13.453,13.453,0,0,1-5.5-2.87,14.981,14.981,0,0,1-2.108-2.03,0.778,0.778,0,0,1,0-1.05c0.2-.24.426-0.48,0.651-0.7a16.935,16.935,0,0,1,4.123-3.13,11.347,11.347,0,0,1,3.089-1.11,8.843,8.843,0,0,1,3.55.05,13.314,13.314,0,0,1,5.5,2.86,14.981,14.981,0,0,1,2.108,2.03,0.8,0.8,0,0,1,.2.41,0.034,0.034,0,0,0,0,.01,0.059,0.059,0,0,1,0,.02s0,0.01,0,.01a0.134,0.134,0,0,0,0,.02s0,0.01,0,.02,0,0.03,0,.04S379.71,6433.76,379.71,6433.78Zm-9.72-3.84a3.645,3.645,0,1,0,3.646,3.65A3.645,3.645,0,0,0,369.99,6429.94Zm0,5.47a1.825,1.825,0,1,1,1.823-1.82A1.824,1.824,0,0,1,369.99,6435.41Z" transform="translate(-360.281 -6428.13)"/>
</svg>
